<?xml version="1.0" standalone="no"?>
<!DOCTYPE svg PUBLIC "-//W3C//DTD SVG 1.1//EN" "http://www.w3.org/Graphics/SVG/1.1/DTD/svg11.dtd" >
<svg xmlns="http://www.w3.org/2000/svg">
<metadata>Generated by IcoMoon</metadata>
<defs>
<font id="icomoon" horiz-adv-x="1024">
<font-face units-per-em="1024" ascent="896" descent="-128" />
<missing-glyph horiz-adv-x="1024" />
<glyph unicode="&#x20;" horiz-adv-x="0" d="" />
<glyph unicode="&#xe609;" glyph-name="account" d="M912.54 810.664h-801.131c-61.423 0-111.409-51.895-111.409-115.723v-621.877c0-63.824 49.98-115.729 111.409-115.729h801.131c61.474 0 111.46 51.905 111.46 115.729v621.875c-0.001 63.83-49.989 115.726-111.46 115.726v0M965.359 73.063c0-30.253-23.694-54.871-52.82-54.871h-801.131c-29.081 0-52.763 24.618-52.763 54.871v621.875c0 30.246 23.682 54.87 52.763 54.87h801.131c29.127 0 52.82-24.625 52.82-54.87v-621.875M871.197 579.225h-328.275c-16.204 0-29.323-13.601-29.323-30.425 0-16.811 13.119-30.419 29.323-30.419h328.275c16.197 0 29.324 13.603 29.324 30.419-0.001 16.823-13.127 30.425-29.324 30.425v0M871.197 424.015h-328.275c-16.204 0-29.323-13.606-29.323-30.423 0-16.812 13.119-30.419 29.323-30.419h328.275c16.197 0 29.324 13.605 29.324 30.419-0.001 16.815-13.127 30.423-29.324 30.423v0M871.197 268.807h-276.982c-16.208 0-29.328-13.606-29.328-30.418 0-16.817 13.119-30.424 29.328-30.424h276.982c16.197 0 29.324 13.606 29.324 30.424-0.001 16.812-13.127 30.418-29.324 30.418v0M418.599 349.379c33.596 29.039 55.038 72.765 55.038 121.592 0 87.197-68.346 158.152-152.332 158.152-84.046 0-152.391-70.954-152.391-158.152 0-48.827 21.435-92.553 55.059-121.592-59.458-28.166-106.258-81.745-126.807-150.366-4.818-16.029 3.827-33.085 19.28-38.086 15.575-4.931 31.906 3.98 36.728 20.030 23.185 77.455 90.716 129.482 168.133 129.482 77.35 0 144.892-52.028 168.074-129.482 3.891-13.042 15.541-21.401 28.012-21.401 2.866 0 5.777 0.449 8.688 1.377 15.453 4.989 24.113 22.050 19.302 38.080-20.546 68.621-67.354 122.199-126.784 150.366v0M321.305 373.66c-51.694 0-93.777 43.648-93.777 97.31 0 53.657 42.083 97.305 93.777 97.305 51.679 0 93.722-43.648 93.722-97.305-0.005-53.662-42.046-97.31-93.722-97.31v0M321.305 373.66v0z" />
<glyph unicode="&#xe60a;" glyph-name="loginaccount" d="M512.009 337.468c-129.61 0-234.676 104.217-234.676 232.737 0 128.567 105.065 232.719 234.676 232.719 129.59 0 234.657-104.217 234.657-232.719 0-128.581-105.065-232.737-234.657-232.737v0 0zM512.009 896c-181.428 0-328.535-145.86-328.535-325.863 0-179.939 147.060-325.794 328.535-325.794s328.463 145.857 328.463 325.794c0.001 180.003-147.048 325.863-328.463 325.863v0 0zM512.009 337.468c-259.248 0-469.346-208.386-469.346-465.468h93.873c0 205.605 168.108 372.343 375.473 372.343 207.35 0 375.454-166.739 375.454-372.343h93.873c0 257.080-210.092 465.468-469.327 465.468v0 0zM512.009 337.468" />
<glyph unicode="&#xe60d;" glyph-name="loginlock" d="M762.1 530.030h-500.141c-0.564 0-1.188 0-1.752-0.061-7.635 117.146 48.503 226.789 166.276 249.318 131.418 25.219 207.203-2.63 252.761-117.777 8.638-21.653 26.474-37.863 49.378-33.478 22.841 4.377 40.426 27.095 33.416 49.25-50.375 157.075-174.35 218.719-351.45 184.801-166.649-31.917-249.32-191.747-231.549-357.895-0.873-0.564-1.685-1.128-2.562-1.628-37.422-26.848-61.892-70.529-61.892-119.908v-363.401c0-81.228 66.083-147.25 147.374-147.25h500.141c81.29 0 147.317 66.021 147.317 147.314v363.338c0 81.233-66.026 147.38-147.317 147.38v0zM825.371 19.314c0-34.73-28.475-63.205-63.272-63.205h-500.141c-34.792 0-63.142 28.475-63.142 63.205v363.337c0 34.797 28.35 63.148 63.142 63.148h500.141c34.797 0 63.272-28.351 63.272-63.148v-363.337zM591.069 240.411c0 43.614-35.293 78.976-79.036 78.976-43.681 0-78.974-35.233-78.974-78.976 0-25.157 12.011-47.186 30.285-61.706l-14.452-137.052c-0.253-3.066 0.686-5.881 2.626-8.198 2.005-2.062 4.818-3.505 7.824-3.505h105.824c5.758 0 10.514 4.755 10.514 10.514 0 1.441-0.253 2.694-0.817 3.944l-14.203 134.235c18.338 14.581 30.413 36.55 30.413 61.767v0z" />
<glyph unicode="&#xe612;" glyph-name="geshulogo" d="M520.64 762.353c230.447-5.204 421.966-164.873 503.361-390.115-91.596-221.287-290.192-372.005-520.639-366.8-230.447 5.413-422.173 165.080-503.361 390.323 91.387 221.287 290.192 372.005 520.639 366.592zM519.599 716.764c-183.609 4.163-336.198-141.349-340.362-324.957-4.163-183.816 141.349-336.198 325.166-340.362s335.99 141.349 340.362 325.166c3.955 183.609-141.557 335.782-325.166 340.154zM515.644 635.992c-141.349 3.123-258.551-108.874-261.673-250.224-3.331-141.349 108.666-258.551 250.224-261.881s258.551 108.666 261.881 250.224c2.914 141.349-108.874 258.551-250.431 261.881zM364.302 359.748c0.624-10.617-7.078-18.944-16.862-19.776-10.617-0.624-18.944 7.078-19.776 16.862-0.832 6.662-0.624 13.531-0.417 20.193 2.498 110.331 84.101 195.058 186.938 192.56 17.278-0.417 33.516-2.706 48.712-7.91-8.951-10.409-18.736-21.65-26.646-31.017-7.703 1.041-15.405 2.29-22.899 2.498-81.604 1.873-147.594-66.824-149.467-155.921-0.208-6.037-0.417-11.866 0.417-17.486zM538.126 357.666c-12.907-21.858-33.099-22.275-50.17-12.282-17.071 11.033-25.189 28.52-12.282 50.17 13.948 20.817 146.345 184.024 153.007 180.902 6.662-4.996-77.441-196.931-90.555-218.789zM672.397 348.507h-1.873c-9.576 0.208-17.278 2.914-16.030 12.49 1.041 5.828 1.041 7.494 1.249 13.323 0.832 36.43-9.992 68.28-27.687 95.551 4.996 11.449 11.033 24.564 16.237 37.888 30.809-35.181 48.921-84.101 47.671-138.851-0.208-6.662-0.208-5.621-1.249-12.282-1.041-9.576-8.744-8.327-18.319-8.119z" />
<glyph unicode="&#xe61a;" glyph-name="close" d="M1019.904 788.275l-101.376 101.581-405.914-405.914-405.914 405.914-101.376-101.376 405.709-405.914-405.709-405.914 101.376-101.376 405.914 405.709 405.709-405.709 101.581 101.376-405.914 405.914z" />
<glyph unicode="&#xe61e;" glyph-name="logineyeslash" d="M767.608 737.204l-26.918 16.776c-20.562 12.815-47.871 6.476-60.686-14.084l-19.12-30.679c-48.319 13.684-97.947 20.535-148.887 20.535-100.219 0-195.368-26.48-285.441-79.442-90.076-52.962-161.792-123.068-215.144-210.314-7.61-13.314-11.412-26.458-11.412-39.43s3.801-26.112 11.412-39.43c53.352-87.249 125.068-157.352 215.138-210.307 21.535-12.662 43.362-23.802 65.477-33.433l-16.15-25.914c-12.815-20.562-6.476-47.871 14.084-60.686l26.918-16.776c20.562-12.815 47.871-6.476 60.686 14.084l404.128 648.415c12.814 20.562 6.476 47.871-14.085 60.687zM330.946 179.832c-22.987 9.47-45.449 20.831-67.377 34.119-76.373 46.28-139.891 108.489-190.566 186.612 57.938 89.931 130.531 157.186 217.779 201.76-23.26-39.654-34.895-82.518-34.895-128.606 0-70.569 25.044-130.872 75.131-180.904 14.736-14.723 30.362-27.271 46.868-37.665l-46.939-75.315zM531.384 600.563c-5.367-5.312-11.853-7.973-19.457-7.973-32.727-0.046-60.723-11.677-83.982-34.89-23.26-23.216-34.895-51.206-34.895-83.982 0-7.706-2.657-14.192-7.973-19.458-5.316-5.261-11.804-7.922-19.458-7.973-7.655-0.052-14.141 2.611-19.458 7.973-5.312 5.367-7.973 11.853-7.973 19.458 0 47.65 17.042 88.516 51.132 122.608 34.092 34.085 74.959 51.133 122.609 51.133 7.654 0.045 14.141-2.613 19.457-7.974 5.312-5.367 7.974-11.853 7.974-19.458 0.044-7.661-2.614-14.146-7.975-19.464zM692.83 292.813c50.084 50.132 75.127 110.435 75.127 180.904 0 4.575-0.119 9.116-0.349 13.627l-155.952-250.223c29.52 12.518 56.583 31.072 81.173 55.692zM1012.585 439.994c-42.86 70.091-97.583 129.107-164.142 177.071-0.075-0.124-0.144-0.25-0.219-0.374l-38.662-62.033c54.132-40.51 101.23-91.87 141.279-154.093-50.668-78.123-114.187-140.333-190.565-186.612-63.9-38.722-132.288-61.234-205.164-67.559l-46.733-74.978c1.208-0.008 2.412-0.031 3.621-0.031 100.22-0.006 195.365 26.379 285.441 79.145 90.077 52.772 161.794 122.973 215.146 210.611 7.606 13.314 11.412 26.454 11.412 39.424-0.001 12.973-3.809 26.117-11.414 39.43z" />
<glyph unicode="&#xe62a;" glyph-name="logineye" d="M950.841 384.001c-57.881 89.932-130.481 157.185-217.774 201.761 23.26-39.654 34.89-82.518 34.89-128.606 0-70.469-25.044-130.773-75.127-180.905-50.083-50.139-110.391-75.183-180.909-75.131-70.52 0.051-130.822 25.094-180.905 75.131-50.088 50.032-75.131 110.336-75.131 180.905 0 46.090 11.636 88.954 34.895 128.606-87.25-44.573-159.842-111.829-217.782-201.761 50.674-78.123 114.192-140.334 190.567-186.613 76.372-46.28 159.153-69.422 248.354-69.422s171.98 23.143 248.354 69.422c76.382 46.279 139.9 108.49 190.569 186.613v0 0zM539.359 603.464c0 7.606-2.662 14.091-7.974 19.458-5.315 5.361-11.803 8.019-19.457 7.974-47.65 0-88.517-17.049-122.609-51.133-34.089-34.092-51.132-74.958-51.132-122.608 0-7.606 2.661-14.091 7.973-19.458 5.317-5.361 11.803-8.025 19.458-7.973s14.141 2.712 19.458 7.973c5.315 5.268 7.973 11.753 7.973 19.458 0 32.776 11.636 60.767 34.895 83.983s51.256 34.844 83.983 34.89c7.603 0 14.090 2.661 19.457 7.973 5.362 5.32 8.020 11.804 7.975 19.464v0zM1024 384.001c0-12.972-3.808-26.112-11.413-39.424-53.352-87.639-125.068-157.839-215.147-210.612-90.076-52.766-185.221-79.151-285.442-79.145-100.219 0-195.369 26.48-285.447 79.442-90.071 52.956-161.788 123.060-215.139 210.308-7.61 13.319-11.413 26.46-11.413 39.43 0 12.973 3.801 26.118 11.413 39.43 53.352 87.249 125.068 157.354 215.145 210.315 90.073 52.962 185.222 79.442 285.442 79.442s195.371-26.48 285.447-79.442c90.072-52.962 161.789-123.068 215.141-210.315 7.606-13.311 11.413-26.456 11.413-39.429v0z" />
<glyph unicode="&#xe662;" glyph-name="gexianglogo" d="M610.677 390.429c-38.488 0-69.801-31.312-69.801-69.8 0-38.509 31.313-69.837 69.801-69.837 38.475 0 69.776 31.328 69.776 69.837 0 38.488-31.301 69.8-69.776 69.8zM610.677 262.663c-32.022 0-57.93 25.937-57.93 57.966 0 31.993 25.907 57.928 57.93 57.928s57.906-25.936 57.906-57.928c0-32.029-25.883-57.966-57.906-57.966zM617.481 372.578c-21.625 0-39.012-17.496-39.012-39.056 0-21.562 17.387-39.041 39.012-39.041 21.593 0 39.087 17.48 39.087 39.041s-17.493 39.056-39.087 39.056zM633.851 323.212c-2.4 0-4.328 1.87-4.328 4.211 0 2.423 1.928 4.358 4.328 4.358 2.326 0 4.28-1.934 4.28-4.358 0.001-2.341-1.953-4.211-4.28-4.211zM626.513 334.659c-6.94 0-12.49 5.561-12.49 12.455 0 6.829 5.549 12.457 12.49 12.457 6.9 0 12.529-5.626 12.529-12.457 0-6.893-5.629-12.455-12.529-12.455zM1024 383.999c0 0.595-0.026 1.184-0.028 1.778 0.012 0.521 0.028 1.042 0.028 1.566 0 1.822-0.118 3.614-0.138 5.431-0.064 4.299-0.166 8.181-0.311 12.052l0.028-0.945c-7.283 225.971-162.828 414.62-373.235 473.173-0.704 0.198-1.404 0.401-2.109 0.595-4.494 1.409-12.66 3.484-20.902 5.359l-3.42 0.655c-1.198 0.267-2.384 0.564-3.585 0.822-4.822 1.179-13.114 2.787-21.475 4.192l-3.009 0.418c-1.112 0.183-2.207 0.413-3.321 0.589-26.238 4.12-53.12 6.315-80.524 6.315-9.799 0-19.515-0.337-29.179-0.876-2.829-0.159-5.625-0.433-8.443-0.638-6.969-0.503-13.908-1.101-20.796-1.878-2.932-0.333-5.845-0.723-8.762-1.106-9.849-1.256-17.009-2.371-24.119-3.632l3.107 0.457c-2.337-0.405-4.675-0.805-7.001-1.242-11.728-2.15-20.18-4-28.55-6.056l3.502 0.728c-0.706-0.17-1.421-0.314-2.127-0.488-218.478-53.247-381.757-245.737-389.212-477.409-0.115-2.902-0.217-6.756-0.276-10.621l-0.005-0.408c-0.019-1.835-0.139-3.646-0.139-5.485 0-0.499 0.016-0.993 0.029-1.488-0.002-0.621-0.029-1.235-0.029-1.857v-0.001c0-0.565 0.040-1.121 0.042-1.686-0.020-0.552-0.042-1.103-0.042-1.659 0-132.567 51.084-253.252 134.715-343.787 92.395-101.351 224.676-164.867 373.467-164.867 0.782 0 1.554 0.033 2.336 0.037 0.497-0.002 0.984-0.037 1.481-0.037 2.219 0 4.404 0.138 6.615 0.166 2.588 0.054 5.178 0.101 7.754 0.195 276.106 7.581 497.63 232.159 497.63 508.293 0 0.561-0.023 1.117-0.042 1.673 0.003 0.562 0.042 1.113 0.042 1.673zM393.888 673.635c92.399 122.448 303.19 111.33 387.778-14.723 51.673-69.457 65.712-152.475 65.675-236.643-0.229-50.299-5.442-100.956-10.537-149.291 0.149-0.043 0.267-0.074 0.415-0.117-0.138-1.325-0.276-2.659-0.415-3.981 21.022-6.164 23.668-4.466 23.855-14.913-0.032-2.443-0.072-5.399-0.049-8.906-0.004-0.587-0.007-1.28-0.007-1.974 0-1.034 0.005-2.066 0.016-3.097l-0.001 0.158c-0.236-18.982-21.85-22.012-49.657-54.338-37.447-71.778-44.252-152.689-58.637-231.189-71.139-39.977-153.077-62.915-240.325-62.915-225.113 0-415.282 151.938-473.696 358.609 29.567 43.893 67.707 81.92 113.541 110.216 81.582 55.891 162.288 54.477 255.56 34.363l47.18-22.494c47.026 54.839 132.365 39.514 185.851 84.587 22.259 21.955 33.22 52.896 32.794 83.622 0.154 30.624-11.133 61.263-34.147 82.689-63.402 64.779-186.902 37.166-224.012-42.838-18.63-40.001-23.588-84.332-31.701-127.171-16.63-0.297-33.408-0.595-50.038-0.745 3.63 76.561 10.259 159.077 60.555 221.092z" />
<glyph unicode="&#xe664;" glyph-name="getuilogo" d="M608.268 641.53c10.463 0 18.944-11.994 18.944-26.797 0-14.786-8.481-26.798-18.944-26.798-10.446 0-18.928 12.012-18.928 26.798 0 14.803 8.481 26.797 18.928 26.797zM590.688 572.667c0 5.089 2.92 9.219 6.515 9.219 3.586 0 6.506-4.13 6.506-9.219 0-5.081-2.92-9.211-6.506-9.211-3.594 0-6.515 4.13-6.515 9.211zM794.578 307.179c-5.15-0.699-10.437-1.416-15.92-2.25-8.225-1.232-19.636-1.838-30.671-2.424-10.36-0.548-21.072-1.116-28.886-2.197-20.722-2.81-39.477-21.766-40.138-40.57-0.507-14.391 10.026-24.896 28.898-28.821 34.13-7.074 71.472 8.117 100.186 22.146 23.028 11.248 46.764 27.215 65.125 43.804 18.789 16.977 25.287 28.739 23.392 32.864-0.861 1.871-6.364 6.836-40.991-8.085h0.002c-20.93-9.031-39.496-11.551-60.995-14.47zM125.724 337.914c-125.724 71.713-45.82-48.677 58.371-114.853 66.635-42.963 144.598-75.29 228.13-92.297-217.634 116.59-216.736 148.986-219.349 180.821-22.832 6.188-44.42 13.364-67.152 26.329zM292.896 497.278c22.402 0 40.628 25.978 40.628 57.909s-18.226 57.907-40.628 57.907c-22.411 0-40.644-25.977-40.644-57.907s18.233-57.909 40.644-57.909zM292.896 607.779c19.472 0 35.311-23.59 35.311-52.592 0-28.997-15.84-52.594-35.311-52.594-19.483 0-35.327 23.597-35.327 52.594 0 29 15.845 52.592 35.327 52.592zM284.857 547.927c9.949 0 18.010 11.424 18.010 25.497s-8.062 25.489-18.010 25.489-18.014-11.416-18.014-25.489c0-14.074 8.065-25.497 18.014-25.497zM280.509 533.403c0 4.829-2.776 8.758-6.186 8.758-3.421 0-6.203-3.928-6.203-8.758 0-4.855 2.783-8.773 6.203-8.773 3.41 0.001 6.186 3.92 6.186 8.773zM616.726 535.238c23.301 0 42.257 27.067 42.257 60.337s-18.957 60.336-42.257 60.336c-23.311 0-42.274-27.066-42.274-60.336s18.964-60.337 42.274-60.337zM616.726 650.593c20.371 0 36.941-24.68 36.941-55.018 0-30.335-16.57-55.020-36.941-55.020-20.382 0-36.957 24.685-36.957 55.020 0 30.338 16.576 55.018 36.957 55.018zM608.268 587.934c10.463 0 18.944 12.012 18.944 26.798 0 14.803-8.481 26.797-18.944 26.797-10.446 0-18.928-11.994-18.928-26.797 0-14.787 8.481-26.798 18.928-26.798zM603.709 572.667c0 5.089-2.92 9.219-6.506 9.219-3.594 0-6.515-4.13-6.515-9.219 0-5.081 2.92-9.211 6.515-9.211 3.586 0 6.506 4.13 6.506 9.211zM992.684 179.929c-23.146 13.112-50.253 9.214-72.425-10.742 11.817 30.713-13.028 66.585-45.82 82.933-8.779 4.376-18.111 6.631-27.305 7.111-25.169 1.314-49.276-10.83-58.185-30.234-1.539-3.354-2.65-6.911-3.207-10.666-2.953-19.966 20.709-30.721 51.726-67.596 25.577-30.339 10.349-61.442-8.848-82.944-25.37-28.402-59.076-46.034-78.34-3.073-20.479 45.607-9.118 86.646 13.99 155.886-12.385-3.402-25.293-5.625-38.261-5.625-7.258 0-14.332 0.703-21.033 2.092-25.905 5.39-40.915 21.528-40.153 43.168 0.915 26.033 24.409 50.297 52.342 54.085 8.41 1.162 19.421 1.745 30.072 2.311 10.692 0.565 21.747 1.149 29.297 2.281 4.064 0.618 7.991 1.165 11.878 1.698 19.734 121.865 11.049 248.333 1.759 283.25-7.558 28.482-32.815 51.915-55.241 62.259-20.18 9.326-39.837 12.924-60.605 13.379 5.44 29.591 16.127 57.314 35.559 64.332 11.667 4.214 26.48 0.976 45.201-13.821 2.742-2.169 5.105-4.674 7.346-7.216 7.204-8.175 13.105-16.771 25.975-16.095 44.914 2.355 28.106 65.667 7.349 86.898-23.981 24.53-62.935 31.548-90.397 9.001-14.042-11.521-35.895-42.428-35.895-61.722-0.018 13.151-0.415 24.543-2.92 34.773-1.817 7.423-4.758 14.234-9.476 20.652-3.876 5.274-8.936 10.287-15.591 15.157-19.962 14.61-45.821 18.677-68.937 10.176-4.777-1.761-9.433-4.361-13.826-7.557-7.692-5.599-14.521-13.104-19.512-21.633-5.973-10.209-9.334-21.835-8.398-33.281 1.251-15.285 7.493-27.313 22.087-31.813 16.622-5.124 24.447 9.212 34.702 18.614 7.074 6.485 15.303 10.622 28.377 4.405 5.118-2.466 9.367-6.010 12.588-10.363 6.241-3.792 8.446-20.020 8.446-35.395-0.010-9.258-0.012-18.067-0.34-27.004-15.108-1.564-31.13-3.861-48.567-6.139-32.134-4.213-143.192-20.348-168.921-21.511-59.341-2.696-128.070-7.317-179.185-39.899-5.752-3.657-10.569-8.116-14.642-13.125-18.19-22.594-23.65-29.262-23.859-57.735-0.249-31.154 4.21-63.748 3.867-93.929-0.26-20.889-16.77-22.602-16.77-45.684 0-32.331 8.846-27.685 14.78-61.439 1.71-9.737 2.844-19.535 3.654-29.387 2.614-31.836 1.715-64.231 4.881-96.978 0.911-9.426 2.167-18.881 3.937-28.361 0.944 19.88 5.783 37.571 14.19 51.476 8.2 13.515 19.122 21.954 30.488 23.736v0.343l8.639 0.047v-0.147c5.149-0.291 9.672-1.178 13.676-2.603 0.425 2.020 0.873 3.707 1.35 5.055 8.507 24.294 27.263 39.437 48.974 39.208 16.426-0.034 29.512-7.534 38.249-18.212 1.298 4.383 2.836 8.466 4.696 12.21 8.206 16.669 22.909 26.346 46.26 30.442 4.425 0.791 8.752 1.222 12.657 1.171 23.984 0 44.454-15.001 60.843-44.585 1.467 2.295 3.024 4.506 4.778 6.523 9.468 10.99 22.534 17.045 36.786 17.045 0.074 0 0.151 0.002 0.22 0 22.306 0 48.484-16.102 57.766-51.906 3.92 2.984 8.109 4.508 12.691 4.567 4.804 0 9.619-1.819 13.979-5.257 4.225-3.311 8.22-8.164 12.206-14.824 5.818-10.047 7.139-24.686 8.266-42.784 0.277-4.9 0.512-10.041 0.756-15.398 0.631-13.826 1.343-29.495 3.038-45.45 3.775-36.183 13.413-88.187 53.365-121.996 27.139-23.039 65.939-35.302 115.295-37.331 0.715-0.030 17.475 1.842 20.803 1.853 0.623-0.004 1.527-0.031 2.591-0.246 35.080 21.249 56.697 52.364 75.947 89.901 27.172 52.928 100.523 41.479 104.959 62.978 4.697 22.892-10.348 41.488-26.621 50.699zM795.851 747.574c8.68-33.954-24.945-28.981-25.923-9.207-1.011 19.781-23.314 45.018-60.045 38.201 0 0.001 71.51 27.621 85.968-28.994zM581.301 786.94c-12.139-12.97-6.763-30.015-13.527-36.109-15.717-14.114-42.058 3.417-20.322 39.891 20.499 34.401 68.831 28.263 83.4-1.988-18.020 16.568-40.002 8.383-49.551-1.793zM735.498 525.529c16.24-6.142 4.433-33.794 4.433-33.794 1.459 38.408-45.84 29.188-45.84 29.188s25.137 10.753 41.407 4.606zM666.541 742.463c0-33.136-7.6-49.89-7.6-49.89s7.623 70.605-14.572 103.725c0 0 22.172-15.654 22.172-53.836zM616.726 665.394c6.645 0 12.991-1.747 18.825-4.889 13.481-7.261 24.181-22.062 29.262-40.57 2.085-7.589 3.23-15.795 3.23-24.361 0-38.499-23.017-69.819-51.318-69.819-28.309 0-51.329 31.32-51.329 69.819 0.001 38.489 23.021 69.82 51.329 69.82zM292.897 621.733c26.973 0 48.912-29.863 48.912-66.546 0-36.695-21.939-66.546-48.912-66.546-26.981 0-48.924 29.852-48.924 66.546 0 36.683 21.942 66.546 48.924 66.546zM348.825 409.901s57.559 39.222 213.029-5.328c0 0.001-124.723 26.605-213.029 5.328zM539.923 430.333c-42.48 5.092-82.604 9.905-122.828 6.996-91.55-6.597-160.446-31.875-185.718-52.569-3.723-3.054-10.124-6.487-15.817-6.487-1.904 0-3.729 0.383-5.35 1.298-4.191 2.36-5.8 7.646-4.306 14.14 1.059 4.471 2.946 8.489 4.772 12.375 0.613 1.304 1.225 2.605 1.804 3.92 0.385 0.87 0.853 2.507 1.35 4.241 1.839 6.439 3.393 11.112 6.62 12.631l1.56 0.735 1.328-1.119c1.391-1.173 5.627-4.742-2.163-25.651-0.624-1.718-0.954-3.264-1.061-4.301 0.511 0.268 0.981 0.554 1.452 0.837 0.393 0.238 0.787 0.474 1.183 0.696 30.185 17.721 55.765 39.695 76.886 65.464-49.444-48.685-22.138-37.956 7.025-32.496-64.135-21.398-52.58-15.716-40.514-10.735 18.203 7.463 37.412 13.455 58.735 18.321 27.004 6.154 55.43 10.093 86.909 12.044 32.293 2.004 65.691 1.783 102.1-0.666 9.855-0.663 19.278-1.313 28.287-1.934 111.363-7.685 157.452-10.863 164.406 20.623 1.044 4.648-6.018 11.023-13.27 14.064-1.097 0.457-2.376 0.87-3.694 1.301-4.656 1.523-9.931 3.248-11.485 7.657-0.873 2.481-0.357 5.283 1.534 8.33 3.591 5.786 9.338 7.891 15.756 5.786 11.369-3.736 24.464-21.197 23.674-37.277-0.514-10.639-6.686-45.444-64.507-46.53-39.337-0.712-77.639 3.868-114.666 8.307zM674.273 7.469c0.081-0.056 0.168-0.105 0.248-0.161 19.101-13.385 41.739-23.184 66.192-27.866-68.252 32.883-84.416 55.22-95.108 82.833-6.133 15.866-10.086 32.249-12.75 48.4-3.945 23.919-5.037 47.325-5.969 67.746-0.551 12.091-1.028 22.534-2.023 31.342-1.306 11.893-3.287 17.2-4.719 19.558-3.617 6.063-6.462 8.957-8.214 10.321-2.298 1.785-3.389 1.758-3.827 1.751-0.981 0-2.691-0.799-4.723-3.049-1.176-1.286-2.376-3.018-3.452-4.95-0.053-0.093-0.108-0.181-0.159-0.276-1.743-16.745-2.626-32.74-2.626-47.555 0.005-5.36 0.129-10.614 0.353-15.782 3.204-74.431 28.985-128.996 76.777-162.31zM309.26 76.921c-24.569 51.441-29.728 103.215-29.728 137.592 0 8.745 0.362 17.187 1.018 24.812-2.748 1.709-7.12 3.121-14.868 3.253l-1.009 0.011c-5.023-0.013-13.364-4.239-20.54-16.157-7.766-12.824-12.041-30.656-12.041-50.224 0-7.336 0.588-14.982 1.747-22.725 1.913-12.636 10.846-57.216 45.469-100.093 28.747-35.584 67.544-60.981 115.595-75.852-37.127 24.635-65.844 57.875-85.643 99.384zM474.355-5.3c-43.607 38.387-74.461 84.538-91.639 136.328-10.558 31.832-15.959 65.79-15.948 101.398 0 4.466 0.092 9.223 0.29 14.969 0.039 0.643 0.037 1.138 0.037 1.652-0.004 2.058-0.212 4.015-0.518 5.92-2.904 18.136-18.691 29.149-33.447 29.154-14.129-0.089-25.498-9.013-32.248-25.226l-1.289-3.34c-0.366-1.105-1.151-4.586-1.881-10.27-0.724-5.314-1.167-11.508-1.225-17.795 0.248 9.252-0.513-0.253-0.513-12.979 0-26.741 3.656-79.263 28.141-130.561 26.466-55.278 69.809-94.97 128.829-117.97 1.839-0.715 3.624-1.351 5.44-2.032 6.025-2.255 11.96-4.376 17.726-6.27 34.409-11.308 63.95-16.43 85.943-18.637-41.268 18.65-76.603 42.925-106.906 72.351 66.111-51.911 42.080-36.863 19.208-16.692zM563.743-0.006c-35.653 46.867-60.683 117.678-76.472 216.386l-0.011-0.002-0.655 4.227s-0.005 0.022-0.005 0.027l-0.668 4.284 0.066 0.010c-0.651 5.221-0.977 10.274-0.977 15.075 0 7.757 0.868 15.015 2.506 21.708-1.949 4.154-3.925 8.065-5.935 11.671-18.017 32.066-34.498 36.28-46.843 36.365-2.939 0-6.131-0.305-9.453-0.907-18.911-3.526-28.266-9.39-34.493-21.633-3.718-7.391-6.218-17.795-7.653-32.181 0.248-1.995 0.417-3.989 0.419-5.973 0-0.796-0.034-1.587-0.082-2.36-0.145-4.092-0.228-8.901-0.228-13.728 0-0.189 0-0.379 0-0.568 0-89.824 34.314-165.678 101.991-225.429 53.207-46.935 113.254-64.916 124.75-68.044 1.065-0.293 1.796-0.483 2.266-0.601 6.529-0.302 13.177-0.458 19.95-0.458h0.415c4.54 0 9.014 0.078 13.423 0.207-32.535 11.764-59.752 32.235-82.312 61.923zM664.872-5.979c-55.141 38.181-84.259 104.414-84.202 191.538 0 14.926 0.88 30.803 2.55 47.198-1.118 5.16-2.197 10.054-3.219 14.418-7.268 30.625-27.411 41.534-42.454 41.566-9.533-0.020-18.005-3.957-24.48-11.387-3.453-3.997-6.126-8.892-8.056-14.48-2.305-6.673-3.534-14.35-3.534-22.874 0-5.2 0.439-10.692 1.307-16.336l0.634-4.025 0.119-0.76h-0.002c6.86-42.955 15.472-80.342 25.925-112.588 12.903-39.799 28.618-71.742 47.399-96.386 14.525-19.027 30.789-33.745 49.295-44.554 21.939-12.811 47.044-20.106 76.304-22.285 0.214-0.015 0.429-0.018 0.642-0.032 6.395-0.437 12.894-0.615 19.174-0.667 14.842 0 28.209 1.245 39.986 3.135 14.525 2.332 26.62 5.648 35.99 8.852-4.831 0.524-10.445 1.256-16.908 2.199-29.415 1.443-75.272 8.858-116.471 37.467z" />
<glyph unicode="&#xe666;" glyph-name="jinggao" d="M512 896c-282.771 0-512-229.229-512-512 0-282.768 229.229-512 512-512 282.768 0 512 229.232 512 512 0 282.771-229.232 512-512 512zM458.158 654.212c0 26.618 21.579 48.2 48.196 48.2 26.62 0 48.199-21.582 48.199-48.2v-368.196c0-26.618-21.579-48.196-48.199-48.196-26.618 0-48.196 21.579-48.196 48.196v368.196zM512 65.595c-39.585 0-71.676 32.090-71.676 71.676 0 39.584 32.090 71.674 71.676 71.674 39.584 0 71.674-32.090 71.674-71.674 0-39.586-32.090-71.676-71.674-71.676z" />
<glyph unicode="&#xe667;" glyph-name="up-arrow" d="M512 682.909c21.538 0 42.994-8.259 59.339-24.689l419.884-421.163c32.777-32.86 32.777-86.157 0-119.018-32.861-32.949-85.986-32.949-118.761 0l-360.462 361.482-360.46-361.482c-32.777-32.951-85.903-32.949-118.678 0-32.861 32.861-32.861 86.157 0 119.018l419.799 421.163c16.345 16.43 37.884 24.689 59.339 24.689h-0.003z" />
<glyph unicode="&#xe66a;" glyph-name="weixuanzhong" d="M512-128c-282.333 0-512 229.667-512 512s229.667 512 512 512 512-229.667 512-512-229.667-512-512-512zM512 827.733c-244.666 0-443.733-199.067-443.733-443.733s199.067-443.733 443.733-443.733 443.733 199.067 443.733 443.733-199.067 443.733-443.733 443.733z" />
<glyph unicode="&#xe66b;" glyph-name="duigou" d="M512 896c-282.771 0-512-229.229-512-512s229.229-512 512-512c282.768 0 512 229.229 512 512s-229.231 512-512 512zM765.285 496.919l-290.236-283.059c-7.894-7.536-18.298-11.841-29.060-11.841-11.123 0-21.525 4.306-29.060 11.841l-158.211 154.267c-7.894 7.536-12.199 17.937-12.199 28.702 0 11.121 4.306 21.167 12.199 29.058 15.426 15.066 42.333 15.066 58.118 0l129.153-125.924 261.178 254.72c15.426 15.066 42.693 15.066 58.118 0 7.891-7.536 12.197-17.937 12.197-28.702-0.001-11.124-4.306-21.168-12.197-29.061z" />
<glyph unicode="&#xe66c;" glyph-name="down-arrow" d="M512 85.089c-21.538 0-42.994 8.259-59.339 24.689l-419.884 421.164c-32.777 32.86-32.777 86.157 0 119.018 32.861 32.949 85.986 32.949 118.761 0l360.462-361.482 360.46 361.482c32.777 32.951 85.903 32.949 118.678 0 32.861-32.861 32.861-86.157 0-119.018l-419.8-421.164c-16.345-16.43-37.884-24.689-59.339-24.689h0.003z" />
<glyph unicode="&#xe689;" glyph-name="timepick-prev" d="M0 57.101l512 653.798 512-653.798z" />
<glyph unicode="&#xe68b;" glyph-name="timepick-next" d="M0 710.899l512-653.798 512 653.798z" />
<glyph unicode="&#xe6a9;" glyph-name="geyan" d="M932.965 608.235c-10.204 0-19.849 6.15-23.802 16.224-169.65 431.974-586.109 281.393-603.771 274.774-13.189-4.973-27.936 1.718-32.908 14.917s1.677 27.926 14.866 32.918c165.657 62.621 518.746 79.644 669.397-303.918 5.162-13.139-1.308-27.976-14.447-33.137-2.766-1.12-5.973-1.772-9.332-1.778h-0.002zM783.243 121.029c-5.353 0.001-10.321 1.651-14.423 4.469l0.087-0.056c-11.682 7.928-14.716 23.822-6.79 35.504 83.548 123.064 184.257 362.755-80.003 585.53-98.025 82.618-210.726 101.758-334.998 56.78-95.388-34.525-162.313-95.518-162.981-96.127-10.363-9.565-26.538-8.925-36.103 1.458-9.565 10.363-8.935 26.508 1.418 36.093 2.915 2.726 295.98 268.204 565.612 40.875 305.915-257.881 164.389-542.798 89.348-653.323-4.943-7.288-12.99-11.201-21.167-11.201zM512.932-21.584c-8.956 0-17.642 4.712-22.325 13.079-6.889 12.32-2.486 27.895 9.834 34.785 131.501 73.543 230.474 223.346 240.668 364.262 5.471 75.66-12.021 184.267-126.409 272.008-55.422 42.512-115.846 59.116-179.735 49.381-171.607-26.218-317.107-230.395-318.554-232.451-8.097-11.562-24.032-14.317-35.603-6.21-11.542 8.117-14.327 24.052-6.22 35.593 6.409 9.136 159.257 223.945 352.501 253.567 78.216 11.991 151.779-7.987 218.723-59.325 132.459-101.599 152.657-228.048 146.278-316.238-11.362-157.111-121.038-323.746-266.707-405.197-3.574-2.047-7.857-3.255-12.422-3.255-0.010 0-0.020 0-0.030 0h0.002zM313.868-14.156c-9.834 0-19.209 5.711-23.413 15.296-5.671 12.92 0.21 27.996 13.129 33.666 179.266 78.656 320.101 235.925 334.888 373.926 7.009 65.406-16.424 119.64-67.772 156.841-44.979 32.578-89.159 43.61-134.946 33.727-107.849-23.262-185.086-156.581-185.855-157.919-20.078-35.145-111.143-74.481-149.363-89.758-13.169-5.271-27.996 1.138-33.227 14.238-5.242 13.1 1.138 27.976 14.238 33.207 58.537 23.443 116.465 55.053 123.973 67.673 3.584 6.29 89.558 154.504 219.452 182.521 60.005 12.97 119.121-1.278 175.721-42.293 67.043-48.563 97.675-119.001 88.61-203.687-16.884-157.569-167.045-328.339-365.17-415.28-3.008-1.363-6.522-2.158-10.222-2.158-0.015 0-0.029 0-0.044 0h0.002zM496.988 283.392l-17.127 20.933c-46.461-65.88-136.49-139.884-285.802-202.505-13.019-5.451-19.15-20.427-13.688-33.447 4.104-9.784 13.598-15.675 23.583-15.675 3.295 0 6.65 0.639 9.875 1.997 137.572 57.683 242.496 132.33 301.927 211.717l-18.768 16.979zM478.086 301.098c-0.001-0.001-0.002-0.003-0.003-0.004-10.823-15.552-10.042-34.809 1.744-43.011s30.114-2.244 40.937 13.308c0.001 0.002 0.002 0.003 0.003 0.005v0c0.001 0.001 0.002 0.003 0.003 0.004 10.823 15.552 10.042 34.809-1.744 43.011s-30.114 2.244-40.937-13.308c-0.001-0.002-0.002-0.003-0.003-0.005v0zM299.988 432.154c-0.001-0.002-0.003-0.004-0.004-0.006-10.409-15.832-8.872-35.225 3.432-43.314s30.716-1.812 41.125 14.021c0.001 0.002 0.003 0.005 0.004 0.007v0c0.001 0.002 0.003 0.004 0.004 0.006 10.409 15.832 8.872 35.225-3.432 43.314s-30.716 1.812-41.125-14.021c-0.001-0.002-0.003-0.005-0.004-0.007v0zM289.677 414.423c-12.92-20.128-26.268-40.935-34.475-48.283-31.92-28.614-133.798-64.817-170.359-76.339-13.459-4.254-20.927-18.61-16.683-32.069s18.551-20.887 32.060-16.693c14.527 4.572 143.252 45.927 189.11 87.042 13.359 11.981 26.598 32.609 43.361 58.707 1.561 2.432 3.173 4.937 4.795 7.454l-31.183 45.544c-5.698-8.563-11.353-17.151-16.624-25.362zM413.985 394.003c-94.101-155.602-275.675-195.255-277.586-195.636-13.808-2.876-22.704-16.374-19.868-30.192 2.486-12.081 13.119-20.408 25-20.408 1.687 0 3.405 0.16 5.131 0.519 8.734 1.781 206.799 44.177 312.094 220.39-17.355 4.050-32.793 12.944-44.771 25.327zM570.729 457.336c0-50.394-40.835-91.241-91.235-91.241s-91.259 40.848-91.259 91.241c0 50.4 40.859 91.248 91.259 91.248s91.235-40.848 91.235-91.248zM479.494 531.137c-40.762 0-73.794-33.051-73.794-73.801s33.033-73.795 73.794-73.795c40.738 0 73.771 33.045 73.771 73.795s-33.032 73.801-73.771 73.801zM488.892 522.648c20.722 0 38.465-12.597 46.060-30.529 2.528-5.979 3.913-12.56 3.913-19.451 0-27.624-22.35-50.005-49.975-50.005-27.601 0-49.962 22.381-49.962 50.005 0 27.593 22.362 49.98 49.963 49.98zM457.5 488.187c0-11.989 9.747-21.7 21.718-21.7s21.694 9.711 21.694 21.7c0 11.983-9.723 21.724-21.694 21.724s-21.718-9.741-21.718-21.724zM459.043 454.12c0-4.138 3.342-7.468 7.499-7.468 4.083 0 7.438 3.331 7.438 7.468 0 4.102-3.354 7.444-7.438 7.444-4.157 0-7.499-3.342-7.499-7.444z" />
<glyph unicode="&#xe8f7;" glyph-name="email" d="M953.861 772.75h-883.722c-38.578 0-70.139-32.548-70.139-72.32v-632.86c0-39.772 31.56-72.319 70.139-72.319h883.722c38.579 0 70.139 32.547 70.139 72.319v632.86c0 39.772-31.559 72.32-70.139 72.32v0zM910.88 712.538l-383.428-336.739c-13.106-13.54-13.050-13.57-26.201 0l-383.413 336.739h793.043zM966.384 88.45l-247.011 270.912c-13.707 14.126-35.888 14.126-49.597 0-13.694-14.124-13.694-37.020 0-51.117l223.509-253.426h-753.477l223.497 253.426c13.709 14.096 13.709 37.022 0 51.117-13.693 14.126-35.89 14.126-49.585 0l-255.158-275.415v577.18l393.077-336.448c19.826-20.411 36.748-35.561 64.908-35.561 28.157 0 40.71 15.149 60.505 35.561l389.332 336.478v-572.707h0.001z" />
<glyph unicode="&#xe900;" glyph-name="suggestion" d="M932.24 648.073c11.186-18.201 20.351-36.941 28.62-56.14 11.911-26.701 22.347-58.209 29.685-90.887l0.651-3.447c4.198-19.199 7.244-38.603 9.318-58.188 2.535-23.782 3.635-47.563 2.817-71.422-1.51-43.263-7.757-85.81-19.662-127.434-9.241-32.306-21.144-63.486-36.35-93.335-16.82-33.023-36.736-63.922-60.237-92.439-12.442-15.105-25.368-29.747-39.422-43.263-29.976-28.851-62.694-53.913-98.686-74.47-26.392-15.078-53.785-27.878-82.403-37.708-28.364-9.754-57.344-16.999-87.039-21.299-28.134-4.070-56.37-6.042-84.733-5.146-31.641 0.999-63 4.889-93.925 12.031-44.159 10.189-86.168 26.317-125.949 48.383-28.851 16-55.962 34.713-81.1 56.421-14.079 12.159-27.724 24.78-40.421 38.425-28.108 30.285-52.555 63.359-72.932 99.608-29.132 51.813-48.562 107.21-58.905 165.96-3.661 20.761-5.734 41.753-6.86 62.898-0.742 14.003-1.024 28.007-0.614 41.957 1.228 42.573 7.27 84.453 18.636 125.437 9.164 33.047 21.274 64.945 36.709 95.486 16.973 33.612 37.349 64.843 60.978 93.898 31.512 38.758 67.864 71.858 108.95 99.557 48.179 32.486 100.453 55.346 156.489 69.015 23.449 5.71 47.231 9.37 71.321 11.417 20.3 1.74 40.6 2.611 60.875 1.689 58.827-2.688 115.657-15.18 170.057-38.603 35.991-15.513 69.809-34.969 101.322-58.673 3.021-2.254 3.098-3.457 0.538-6.016-9.78-9.804-34.611-39.602-43.622-49.151-2.203-2.33-3.662-2.33-6.195-0.512-15.010 10.895-32.091 21.365-49.97 30.492l-2.203 1.021c-36.888 18.534-75.544 31.461-116.093 38.424-29.311 5.044-58.776 7.143-88.344 5.71-51.071-2.458-100.247-13.952-147.351-34.764-37.041-16.384-71.090-37.811-102.038-64.306-29.389-25.165-55.244-53.81-77.132-86.194-24.575-36.351-43.545-75.543-56.422-117.808-8.038-26.342-13.465-53.221-16.64-80.663-2.765-23.629-3.61-47.284-2.509-70.911 1.613-34.56 6.988-68.555 16.537-101.834 7.245-25.242 16.409-49.689 27.955-73.139 14.923-30.335 32.946-58.621 54.348-84.632 31.102-37.785 67.096-69.579 108.49-94.742 39.321-23.91 81.407-40.729 126.129-50.38 20.198-4.352 40.575-7.219 61.209-8.524 13.414-0.845 26.803-1.076 40.166-0.64 34.073 1.126 67.607 6.425 100.452 16.025 27.29 7.987 53.605 18.534 78.769 32.025 27.955 15.002 54.015 32.921 78.053 54.014 31.307 27.468 58.546 58.648 81.072 94.103 30.463 47.898 50.815 100.095 61.363 156.26 3.353 17.842 5.324 35.889 6.502 54.091 0.593 8.62 0.93 18.683 0.93 28.825 0 6.59-0.143 13.148-0.425 19.669l0.032-0.93c-1.459 34.405-6.834 68.248-16.229 101.374-7.347 25.906-16.82 50.969-28.596 75.057-2.969 6.093-6.4 11.93-9.522 17.946-0.871 1.638-2.534 3.199-0.385 5.375 10.059 10.318 43.033 33.868 53.939 45.005zM496.768 330.127c-7.655 0.026-11.468 3.738-11.162 11.598 0.46 12.288 5.325 23.32 10.29 34.2 13.286 29.184 30.029 56.345 46.872 83.454 9.755 15.692 21.274 29.643 34.125 42.776 117.885 120.447 235.566 241.122 353.195 361.848 3.635 3.712 5.299 3.61 8.832-0.051 22.63-23.577 45.49-46.948 68.428-70.219 2.969-2.995 2.867-4.531-0.027-7.474-123.516-126.385-246.932-252.871-370.396-379.307-7.245-7.424-16.358-12.288-24.857-17.945-25.983-17.356-52.273-34.175-80.433-47.692-9.19-4.403-18.559-8.397-28.594-10.496-2.126-0.435-4.174-0.664-6.273-0.691z" />
<glyph unicode="&#xe901;" glyph-name="menulogo" d="M85.333 896v-1024h142.094v1024h-142.094zM440.829 896v-1024h142.084v1024h-142.084zM938.667 896h-142.084v-1024h142.084v1024z" />
<glyph unicode="&#xe902;" glyph-name="product" d="M236.926 812.738c40.353 0 78.124-15.73 106.62-44.13 27.288-27.116 44.178-64.668 44.178-106.164 0-0.143 0-0.287-0.001-0.43v0.022-150.655h-150.798c-0.138 0-0.3-0.001-0.463-0.001-41.486 0-79.031 16.87-106.151 44.125l-0.006 0.006c-27.26 27.126-44.131 64.671-44.131 106.156 0 0.129 0 0.259 0 0.388v-0.020c0 40.257 15.73 78.077 44.13 106.572 27.154 27.262 64.725 44.131 106.236 44.131 0.134 0 0.27 0 0.405 0h-0.021zM236.926 893.157c-1.714 0.046-3.733 0.072-5.758 0.072-127.672 0-231.169-103.498-231.169-231.169s103.498-231.169 231.169-231.169c2.025 0 4.043 0.026 6.056 0.077l-0.298-0.006h179.15c28.765 0 52.087 23.305 52.115 52.065v179.009c-0.055 127.657-103.553 231.122-231.217 231.122-0.017 0-0.034 0-0.050 0h0.003zM236.926 274.092h150.798v-150.702c0-0.121 0-0.264 0-0.408 0-41.497-16.891-79.049-44.171-106.157l-0.008-0.008c-27.179-27.235-64.756-44.083-106.268-44.083-0.123 0-0.248 0-0.371 0h0.019c-0.104 0-0.229 0-0.352 0-41.512 0-79.089 16.848-106.265 44.080l-0.002 0.002c-27.262 27.154-44.131 64.725-44.131 106.236 0 0.118 0 0.236 0 0.354v-0.018c0 40.305 15.73 78.124 44.13 106.572 27.154 27.262 64.725 44.131 106.236 44.131 0.134 0 0.27 0 0.405 0h-0.021zM236.926 354.511c-127.619 0-231.073-103.455-231.073-231.073s103.455-231.073 231.073-231.073v0c0.043 0 0.093 0 0.143 0 127.611 0 231.067 103.422 231.122 231.021v178.964c0 0.015 0 0.031 0 0.048 0 28.782-23.333 52.115-52.115 52.115h-179.15zM776.097 812.738c40.162 0 78.077-15.73 106.572-44.13 28.495-28.495 44.226-66.315 44.226-106.572s-15.73-78.124-44.226-106.572c-27.162-27.262-64.738-44.131-106.256-44.131-0.111 0-0.222 0-0.334 0h-150.925v150.702c0 40.257 15.683 78.077 44.226 106.572 27.125 27.26 64.671 44.131 106.157 44.131 0.196 0 0.392 0 0.588-0.001h-0.030zM776.097 893.157c-0.057 0-0.124 0-0.192 0-127.638 0-231.115-103.443-231.169-231.068v-179.060c0.027-28.762 23.35-52.067 52.115-52.067 0.017 0 0.034 0 0.050 0h179.004c127.752 0 231.36 103.512 231.36 231.122s-103.608 231.073-231.169 231.073zM1003.872 179.33h-24.432c-12.105 0.626-22.245 8.402-26.324 19.16l-0.068 0.204-13.961 34.042c-1.777 3.669-2.815 7.98-2.815 12.534 0 7.614 2.903 14.551 7.665 19.762l-0.020-0.022 17.356 17.26c3.634 3.706 5.877 8.787 5.877 14.392s-2.243 10.686-5.88 14.395l0.003-0.003-28.879 28.687c-3.684 3.679-8.772 5.955-14.392 5.955s-10.706-2.276-14.392-5.955v0l-17.26-17.26c-5.164-4.719-12.066-7.609-19.645-7.609-4.592 0-8.936 1.061-12.8 2.952l0.173-0.076-34.042 13.961c-11.044 4.020-18.89 14.202-19.41 26.283l-0.002 0.061v24.384c-0.027 11.201-9.115 20.272-20.32 20.272 0 0 0 0 0 0h-40.687c0 0 0 0 0 0-11.206 0-20.293-9.070-20.32-20.269v-24.386c-0.543-12.148-8.402-22.329-19.255-26.279l-0.204-0.065-33.899-14.057c-3.672-1.769-7.985-2.803-12.539-2.803-7.626 0-14.574 2.898-19.805 7.654l0.024-0.021-17.307 17.307c-3.684 3.679-8.772 5.955-14.392 5.955s-10.706-2.276-14.392-5.955l-28.782-28.734c-3.674-3.67-5.947-8.741-5.947-14.343s2.273-10.674 5.946-14.343v0l17.307-17.26c7.841-7.984 10.040-22.424 4.782-32.321l-14.008-34.089c-4.088-10.986-14.236-18.783-26.277-19.361l-0.067-0.002h-24.432c-11.223 0-20.32-9.098-20.32-20.32v-40.592c0-11.093 9.132-20.32 20.272-20.32h24.479c12.086-0.616 22.193-8.453 26.135-19.255l0.065-0.204 14.105-33.946c1.791-3.684 2.837-8.016 2.837-12.591 0-7.607-2.893-14.538-7.64-19.754l0.021 0.024-17.451-17.26c-3.634-3.706-5.877-8.787-5.877-14.392s2.243-10.686 5.88-14.395l-0.003 0.003 28.879-28.687c3.67-3.674 8.741-5.947 14.343-5.947s10.674 2.273 14.343 5.946v0l17.307 17.26c5.176 4.742 12.101 7.648 19.705 7.648 4.548 0 8.855-1.040 12.694-2.894l-0.175 0.076 34.042-14.105c11.066-3.976 18.937-14.153 19.457-26.236l0.002-0.061v-24.289c0-11.093 9.132-20.272 20.368-20.272h40.687c10.996 0 20.272 9.132 20.272 20.272v24.289c0 11.14 8.701 22.95 19.412 26.297l34.089 14.105c3.669 1.777 7.98 2.815 12.534 2.815 7.614 0 14.551-2.903 19.762-7.665l-0.022 0.020 17.26-17.26c3.684-3.679 8.772-5.955 14.392-5.955s10.706 2.276 14.392 5.955v0l28.687 28.687c3.679 3.684 5.955 8.772 5.955 14.392s-2.276 10.706-5.955 14.392v0l-17.26 17.26c-4.727 5.178-7.622 12.099-7.622 19.697 0 4.571 1.048 8.896 2.917 12.751l-0.076-0.174 14.008 33.994c4.049 11.005 14.224 18.81 26.286 19.314l0.059 0.002h24.384c11.229 0.108 20.294 9.222 20.32 20.461v40.594c0.001 0.057 0.001 0.124 0.001 0.192 0 11.117-9.012 20.129-20.129 20.129 0 0-0.001 0-0.001 0v0zM861.536 138.785c0-56.178-45.374-101.6-101.552-101.6-56.059 0-101.504 45.445-101.504 101.504s45.445 101.504 101.504 101.504v0c0.057 0 0.124 0 0.192 0 55.98 0 101.36-45.38 101.36-101.36 0-0.017 0-0.034 0-0.050v0.002z" />
</font>
</defs>
</svg>
